<?xml version="1.0" standalone="no"?>
<!DOCTYPE svg PUBLIC "-//W3C//DTD SVG 20010904//EN"
 "http://www.w3.org/TR/2001/REC-SVG-20010904/DTD/svg10.dtd">
<svg version="1.0" xmlns="http://www.w3.org/2000/svg"
 width="180.000000pt" height="180.000000pt" viewBox="0 0 180.000000 180.000000"
 preserveAspectRatio="xMidYMid meet">

<g transform="translate(0.000000,180.000000) scale(0.100000,-0.100000)"
fill="#000000" stroke="none">
<path d="M177 1786 c-83 -30 -146 -96 -168 -178 -6 -24 -9 -290 -7 -730 3
-687 3 -693 24 -733 28 -51 68 -91 119 -119 40 -21 43 -21 755 -21 712 0 715
0 755 21 51 28 91 68 119 119 21 40 21 43 21 755 0 712 0 715 -21 755 -28 51
-68 91 -119 119 -40 21 -45 21 -740 23 -570 2 -707 0 -738 -11z m168 -886 l0
-345 -45 0 -45 0 -3 348 -2 348 47 -3 48 -3 0 -345z m440 121 c83 -37 129
-119 129 -226 0 -74 -17 -126 -57 -171 -88 -101 -256 -106 -344 -12 -57 60
-79 178 -51 269 15 52 73 117 122 140 54 24 148 24 201 0z m502 8 c69 -26 114
-101 116 -193 l2 -61 -168 -3 -167 -2 6 -28 c21 -91 74 -125 184 -119 41 3 82
8 91 11 13 6 18 0 23 -25 8 -40 1 -45 -86 -59 -129 -22 -233 22 -278 116 -44
95 -24 240 43 313 49 53 162 77 234 50z m299 -383 c21 -33 15 -65 -19 -90 -26
-19 -30 -19 -55 -5 -33 18 -43 77 -17 103 25 25 72 20 91 -8z"/>
<path d="M614 951 c-45 -27 -69 -83 -68 -162 0 -46 6 -75 20 -99 75 -129 239
-80 252 75 10 119 -45 205 -131 205 -23 0 -56 -8 -73 -19z"/>
<path d="M1181 972 c-37 -6 -68 -30 -85 -67 -31 -64 -29 -65 104 -65 101 0
120 2 120 15 0 24 -25 78 -42 93 -21 17 -67 29 -97 24z"/>
</g>
</svg>
